name ./resultDataOpenSim/trcMotMarkerGrf/sub06/grf-04-01.mot
datacolumns 19
datarows 25
range 1.02400000 1.12000000
endheader

                time	     ground_force_vx	     ground_force_vy	     ground_force_vz	     ground_force_px	     ground_force_py	     ground_force_pz	   l_ground_force_vx	   l_ground_force_vy	   l_ground_force_vz	   l_ground_force_px	   l_ground_force_py	   l_ground_force_pz	     ground_torque_x	     ground_torque_y	     ground_torque_z	   l_ground_torque_x	   l_ground_torque_y	   l_ground_torque_z	
          1.02400000	          0.00000000	          0.00000000	          0.00000000	          0.00000000	          0.00000000	          0.00000000	        146.26790649	        716.94671292	         27.14902028	          0.03325950	         -0.07500000	          0.00012820	          0.00000000	          0.00000000	          0.00000000	          0.00000000	         -2.66371549	          0.00000000	
          1.02800000	          0.00000000	          0.00000000	          0.00000000	          0.00000000	          0.00000000	          0.00000000	        154.53241020	        730.15384117	         26.19610216	          0.03385663	         -0.07500000	          0.00052441	          0.00000000	          0.00000000	          0.00000000	          0.00000000	         -2.82551660	          0.00000000	
          1.03200000	          0.00000000	          0.00000000	          0.00000000	          0.00000000	          0.00000000	          0.00000000	        162.73475823	        741.18306060	         25.04203126	          0.03447490	         -0.07500000	          0.00094261	          0.00000000	          0.00000000	          0.00000000	          0.00000000	         -2.98027855	          0.00000000	
          1.03600000	          0.00000000	          0.00000000	          0.00000000	          0.00000000	          0.00000000	          0.00000000	        170.78536945	        749.62590527	         23.71422618	          0.03510936	         -0.07500000	          0.00136806	          0.00000000	          0.00000000	          0.00000000	          0.00000000	         -3.12363371	          0.00000000	
          1.04000000	          0.00000000	          0.00000000	          0.00000000	          0.00000000	          0.00000000	          0.00000000	        178.58056931	        755.06191864	         22.21805611	          0.03574410	         -0.07500000	          0.00178391	          0.00000000	          0.00000000	          0.00000000	          0.00000000	         -3.25168506	          0.00000000	
          1.04400000	          0.00000000	          0.00000000	          0.00000000	          0.00000000	          0.00000000	          0.00000000	        186.02107955	        757.14365954	         20.56528711	          0.03638036	         -0.07500000	          0.00218793	          0.00000000	          0.00000000	          0.00000000	          0.00000000	         -3.36059503	          0.00000000	
          1.04800000	          0.00000000	          0.00000000	          0.00000000	          0.00000000	          0.00000000	          0.00000000	        193.01866049	        755.65036158	         18.78484487	          0.03703251	         -0.07500000	          0.00258908	          0.00000000	          0.00000000	          0.00000000	          0.00000000	         -3.44638378	          0.00000000	
          1.05200000	          0.00000000	          0.00000000	          0.00000000	          0.00000000	          0.00000000	          0.00000000	        199.48449880	        750.47826171	         16.89837310	          0.03771104	         -0.07500000	          0.00299406	          0.00000000	          0.00000000	          0.00000000	          0.00000000	         -3.50507140	          0.00000000	
          1.05600000	          0.00000000	          0.00000000	          0.00000000	          0.00000000	          0.00000000	          0.00000000	        205.28996259	        741.55133497	         14.89688106	          0.03842593	         -0.07500000	          0.00340136	          0.00000000	          0.00000000	          0.00000000	          0.00000000	         -3.53304147	          0.00000000	
          1.06000000	         -7.15638705	         13.11073654	          2.49189943	          0.72054123	          0.00000000	          0.10245090	        210.22962883	        728.71136397	         12.75605936	          0.03918206	         -0.07500000	          0.00380127	          0.00000000	          0.23409422	          0.00000000	          0.00000000	         -3.52741632	          0.00000000	
          1.06400000	        -26.57824364	        121.12378369	         10.71164227	          0.72381199	          0.00000000	          0.10091742	        214.01750405	        711.67329093	         10.46690327	          0.03997330	         -0.07500000	          0.00418272	          0.00000000	          0.37818565	          0.00000000	          0.00000000	         -3.48637021	          0.00000000	
          1.06800000	        -44.16685931	        223.22907956	         18.93733450	          0.72668153	          0.00000000	          0.09954022	        216.30024795	        690.05725010	          8.04333933	          0.04079028	         -0.07500000	          0.00453475	          0.00000000	          0.46487631	          0.00000000	          0.00000000	         -3.40942779	          0.00000000	
          1.07200000	        -58.80982060	        312.90825519	         26.82227112	          0.72922169	          0.00000000	          0.09853206	        216.68147202	        663.45704670	          5.52188108	          0.04162110	         -0.07500000	          0.00483813	          0.00000000	          0.45542318	          0.00000000	          0.00000000	         -3.29772185	          0.00000000	
          1.07600000	        -70.11237502	        385.80560566	         33.58298292	          0.73094245	          0.00000000	          0.09839049	        214.77688117	        631.54726621	          2.97579133	          0.04246883	         -0.07500000	          0.00507385	          0.00000000	          0.31866631	          0.00000000	          0.00000000	         -3.15405282	          0.00000000	
          1.08000000	        -78.43482646	        441.56529881	         38.16221925	          0.73174192	          0.00000000	          0.09925504	        210.27297922	        594.25264999	          0.51402021	          0.04337295	         -0.07500000	          0.00523422	          0.00000000	          0.04464247	          0.00000000	          0.00000000	         -2.98260312	          0.00000000	
          1.08400000	        -84.83236351	        483.04889052	         39.66887283	          0.73256349	          0.00000000	          0.10061672	        202.93919677	        551.91876319	         -1.75302330	          0.04443106	         -0.07500000	          0.00533646	          0.00000000	         -0.34140064	          0.00000000	          0.00000000	         -2.78829948	          0.00000000	
          1.08800000	        -90.96792535	        513.57354343	         37.71907214	          0.73463368	          0.00000000	          0.10195023	        192.62276930	        505.34669846	         -3.73848346	          0.04574196	         -0.07500000	          0.00540819	          0.00000000	         -0.77213802	          0.00000000	          0.00000000	         -2.57595278	          0.00000000	
          1.09200000	        -98.57455649	        535.38267567	         32.45430820	          0.73827038	          0.00000000	          0.10331490	        179.31083441	        455.66425450	         -5.36562402	          0.04737008	         -0.07500000	          0.00547580	          0.00000000	         -1.14565016	          0.00000000	          0.00000000	         -2.34944150	          0.00000000	
          1.09600000	       -108.74095445	        550.85940947	         24.46306011	          0.74271883	          0.00000000	          0.10509270	        163.25968258	        404.21376472	         -6.55304611	          0.04936998	         -0.07500000	          0.00555105	          0.00000000	         -1.34969743	          0.00000000	          0.00000000	         -2.11139039	          0.00000000	
          1.10000000	       -121.97852788	        564.27193520	         14.68788985	          0.74720546	          0.00000000	          0.10728148	        145.08232398	        352.56870969	         -7.24176295	          0.05177188	         -0.07500000	          0.00563473	          0.00000000	         -1.29699115	          0.00000000	          0.00000000	         -1.86377354	          0.00000000	
          1.10400000	       -138.84688510	        581.21749032	          4.18681733	          0.75200565	          0.00000000	          0.10933563	        125.72771107	        302.49002441	         -7.43803775	          0.05457597	         -0.07500000	          0.00571500	          0.00000000	         -0.95825604	          0.00000000	          0.00000000	         -1.60930049	          0.00000000	
          1.10800000	       -159.79992738	        606.04697867	         -6.08147948	          0.75785514	          0.00000000	          0.11074611	        106.36954584	        255.62768136	         -7.22223889	          0.05764616	         -0.07500000	          0.00578308	          0.00000000	         -0.37840349	          0.00000000	          0.00000000	         -1.35269985	          0.00000000	
          1.11200000	       -184.17886998	        639.85956811	        -15.27447426	          0.76445689	          0.00000000	          0.11147086	         88.20119707	        213.12636283	         -6.71862772	          0.06079012	         -0.07500000	          0.00583496	          0.00000000	          0.33234807	          0.00000000	          0.00000000	         -1.10099148	          0.00000000	
          1.11600000	       -209.88049296	        680.66302047	        -22.65761060	          0.77058870	          0.00000000	          0.11179503	         72.15242670	        175.46196422	         -6.03970585	          0.06379314	         -0.07500000	          0.00587635	          0.00000000	          1.02902529	          0.00000000	          0.00000000	         -0.86260099	          0.00000000	
          1.12000000	       -234.37410167	        725.12217374	        -27.67257529	          0.77538498	          0.00000000	          0.11199320	         58.66078739	        142.56284896	         -5.23828376	          0.06651052	         -0.07500000	          0.00593064	          0.00000000	          1.57119292	          0.00000000	          0.00000000	         -0.64581421	          0.00000000	
